<?xml version="1.0" encoding="UTF-8" standalone="no"?>
<svg
   xmlns:dc="http://purl.org/dc/elements/1.1/"
   xmlns:cc="http://creativecommons.org/ns#"
   xmlns:rdf="http://www.w3.org/1999/02/22-rdf-syntax-ns#"
   xmlns:svg="http://www.w3.org/2000/svg"
   xmlns="http://www.w3.org/2000/svg"
   xmlns:sodipodi="http://sodipodi.sourceforge.net/DTD/sodipodi-0.dtd"
   xmlns:inkscape="http://www.inkscape.org/namespaces/inkscape"
   width="184.99998pt"
   height="185pt"
   viewBox="0 0 185.00021 185.00011"
   version="1.2"
   id="svg2"
   inkscape:version="0.91 r13725"
   sodipodi:docname="logo.svg">
  <title
     id="title3346">Very Scary Scenario logo</title>
  <metadata
     id="metadata318">
    <rdf:RDF>
      <cc:Work
         rdf:about="">
        <dc:format>image/svg+xml</dc:format>
        <dc:type
           rdf:resource="http://purl.org/dc/dcmitype/StillImage" />
        <dc:title>Very Scary Scenario logo</dc:title>
      </cc:Work>
    </rdf:RDF>
  </metadata>
  <sodipodi:namedview
     pagecolor="#416541"
     bordercolor="#666666"
     borderopacity="1"
     objecttolerance="10000"
     gridtolerance="10"
     guidetolerance="10"
     inkscape:pageopacity="0"
     inkscape:pageshadow="2"
     inkscape:window-width="1357"
     inkscape:window-height="856"
     id="namedview316"
     showgrid="false"
     inkscape:zoom="2.848989"
     inkscape:cx="123.18728"
     inkscape:cy="152.35242"
     inkscape:window-x="68"
     inkscape:window-y="0"
     inkscape:window-maximized="0"
     inkscape:current-layer="g10"
     units="pt"
     fit-margin-top="0"
     fit-margin-left="0"
     fit-margin-right="0"
     fit-margin-bottom="0"
     inkscape:showpageshadow="false"
     inkscape:snap-path-clip="false">
    <inkscape:grid
       type="xygrid"
       id="grid3406"
       originx="2.5000002e-07"
       originy="-7.4425416e-05" />
  </sodipodi:namedview>
  <desc
     id="desc6">Generated with Qt</desc>
  <defs
     id="defs8" />
  <g
     id="g10"
     transform="translate(-420.00052,-70.999869)"
     style="fill:none;fill-rule:evenodd;stroke:#000000;stroke-width:1;stroke-linecap:square;stroke-linejoin:bevel">
    <path
       style="font-style:normal;font-weight:400;font-size:medium;font-family:Helvetica;fill:#76852F;fill-opacity:1;fill-rule:evenodd;stroke:none"
       d="m 540,25.212891 c -8.27999,0 -15,6.72001 -15,15 l 0,77.499999 c 0,8.27999 6.72001,15 15,15 l 77.5,0 c 8.27999,0 15,-6.72001 15,-15 l 0,-77.499999 c 0,-8.27999 -6.72001,-15 -15,-15 l -77.5,0 z m 13.68359,26.050781 12.56055,0 10,39.839844 c 0.53333,2.13333 0.98604,4.186825 1.35938,6.160156 l 2,0 c 0.16,-1.013332 0.61466,-3.066827 1.36132,-6.160156 l 9.91993,-39.839844 12.55859,0 -14.95898,51.839848 c -0.26667,1.01333 -0.79962,1.84047 -1.59961,2.48046 -0.74667,0.58667 -1.65404,0.87891 -2.72071,0.87891 l -11.11914,0 c -1.06666,0 -2.00078,-0.29224 -2.80078,-0.87891 -0.74667,-0.63999 -1.25286,-1.46713 -1.51953,-2.48046 L 553.68359,51.263672 Z"
       id="path50"
       inkscape:connector-curvature="0"
       transform="matrix(0.80000099,0,0,0.80000099,0,50.82947)" />
    <path
       style="font-style:normal;font-weight:700;font-size:medium;font-family:'Exo 2';fill:#76852F;fill-opacity:1;fill-rule:evenodd;stroke:none"
       d="m 540,148.96289 c -8.27999,0 -15,6.72001 -15,15 l 0,77.5 c 0,8.27999 6.72001,15 15,15 l 77.5,0 c 8.27999,0 15,-6.72001 15,-15 l 0,-77.5 c 0,-8.27999 -6.72001,-15 -15,-15 l -77.5,0 z m 39.14453,25.00977 c 7.03999,0 13.0935,0.72015 18.16016,2.16015 l -0.80078,8.32031 c -4.64,-0.15999 -10.39931,-0.24023 -17.2793,-0.24023 -3.2,0 -5.33373,0.29419 -6.40039,0.88086 -1.06667,0.53333 -1.59961,1.91821 -1.59961,4.1582 0,1.81333 0.39922,3.12188 1.19922,3.92188 0.8,0.8 2.32055,1.57169 4.56055,2.31836 l 10.48046,3.60156 c 4.26667,1.49333 7.27907,3.54487 9.03907,6.1582 1.75999,2.56 2.64062,5.92009 2.64062,10.08008 0,6.18666 -1.4938,10.40063 -4.48047,12.64063 -2.98666,2.18666 -8.32001,3.27929 -16,3.27929 -6.23999,0 -12.55899,-0.69146 -18.95898,-2.07812 l 0.71875,-8.80078 c 11.35998,0.26666 17.44023,0.40039 18.24023,0.40039 3.25333,0 5.41381,-0.34769 6.48047,-1.04102 1.12,-0.69333 1.67969,-2.13365 1.67969,-4.32031 0,-1.86666 -0.37248,-3.17326 -1.11914,-3.91992 -0.74667,-0.8 -2.10675,-1.52016 -4.08008,-2.16016 l -11.12109,-3.91992 c -4.10667,-1.49333 -7.03883,-3.52008 -8.79883,-6.08008 -1.76,-2.56 -2.64063,-5.92008 -2.64063,-10.08008 0,-6.07999 1.46706,-10.13154 4.40039,-12.1582 2.98667,-2.08 8.21303,-3.12109 15.67969,-3.12109 z"
       id="path66"
       inkscape:connector-curvature="0"
       transform="matrix(0.80000099,0,0,0.80000099,0,50.82947)" />
    <g
       font-size="21"
       font-weight="400"
       font-style="normal"
       id="g170"
       style="font-style:normal;font-weight:400;font-size:21px;font-family:'Exo 2';fill:#000000;fill-opacity:1;stroke:#000000;stroke-width:1;stroke-linecap:square;stroke-linejoin:bevel;stroke-opacity:1">
      <text
         xml:space="preserve"
         x="253.5"
         y="2954"
         font-size="21"
         font-weight="400"
         font-style="normal"
         id="text172"
         style="font-style:normal;font-weight:400;font-size:21px;font-family:'Exo 2';fill:#000000;fill-opacity:1;stroke:none" />
    </g>
    <g
       font-size="21"
       font-weight="400"
       font-style="normal"
       id="g178"
       style="font-style:normal;font-weight:400;font-size:21px;font-family:'Exo 2';fill:#000000;fill-opacity:1;stroke:#000000;stroke-width:1;stroke-linecap:square;stroke-linejoin:bevel;stroke-opacity:1">
      <text
         xml:space="preserve"
         x="493.5"
         y="2954"
         font-size="21"
         font-weight="400"
         font-style="normal"
         id="text180"
         style="font-style:normal;font-weight:400;font-size:21px;font-family:'Exo 2';fill:#000000;fill-opacity:1;stroke:none" />
    </g>
    <g
       font-size="21"
       font-weight="400"
       font-style="normal"
       id="g186"
       style="font-style:normal;font-weight:400;font-size:21px;font-family:'Exo 2';fill:#000000;fill-opacity:1;stroke:#000000;stroke-width:1;stroke-linecap:square;stroke-linejoin:bevel;stroke-opacity:1">
      <text
         xml:space="preserve"
         x="719.5"
         y="2954"
         font-size="21"
         font-weight="400"
         font-style="normal"
         id="text188"
         style="font-style:normal;font-weight:400;font-size:21px;font-family:'Exo 2';fill:#000000;fill-opacity:1;stroke:none" />
    </g>
    <path
       inkscape:connector-curvature="0"
       id="path3485"
       d="m 531.00065,70.999881 c -6.624,0 -12.00001,5.376015 -12.00001,12.000015 l 0,62.000074 c 0,6.62401 5.37601,12.00002 12.00001,12.00002 l 62.00008,0 c 6.624,0 12.00001,-5.37601 12.00001,-12.00002 l 0,-62.000074 c 0,-6.624 -5.37601,-12.000015 -12.00001,-12.000015 l -62.00008,0 z m 31.31567,20.007841 c 5.63199,0 10.47481,0.576121 14.52814,1.728122 l -0.64062,6.656254 c -3.71201,-0.12799 -8.31946,-0.19218 -13.82346,-0.19218 -2.56,0 -4.26699,0.23535 -5.12032,0.70469 -0.85334,0.426662 -1.27969,1.534572 -1.27969,3.326562 0,1.45067 0.31938,2.49751 0.95938,3.13751 0.64,0.64 1.85644,1.25735 3.64844,1.85469 l 8.38438,2.88125 c 3.41334,1.19467 5.82327,2.8359 7.23127,4.92657 1.40799,2.048 2.1125,4.73607 2.1125,8.06407 0,4.94934 -1.19505,8.32052 -3.58438,10.11252 -2.38934,1.74933 -6.65602,2.62343 -12.80002,2.62343 -4.992,0 -10.04721,-0.55317 -15.1672,-1.6625 l 0.575,-7.04063 c 9.08799,0.21333 13.9522,0.32031 14.5922,0.32031 2.60267,0 4.33105,-0.27815 5.18438,-0.83281 0.896,-0.55467 1.34376,-1.70692 1.34376,-3.45625 0,-1.49333 -0.29799,-2.53862 -0.89532,-3.13594 -0.59733,-0.64001 -1.6854,-1.21613 -3.26407,-1.72813 l -8.89688,-3.13594 c -3.28534,-1.19467 -5.63107,-2.81607 -7.03907,-4.86407 -1.408,-2.04801 -2.11251,-4.73607 -2.11251,-8.06408 0,-4.863999 1.17365,-8.105243 3.52032,-9.726573 2.38934,-1.664002 6.57043,-2.496875 12.54377,-2.496875 z"
       style="font-style:normal;font-weight:700;font-size:medium;font-family:'Exo 2';fill:#76852F;fill-opacity:1;fill-rule:evenodd;stroke:none" />
  </g>
</svg>
