<?xml version="1.0" encoding="UTF-8" standalone="no"?>
<svg
   xmlns:dc="http://purl.org/dc/elements/1.1/"
   xmlns:cc="http://creativecommons.org/ns#"
   xmlns:rdf="http://www.w3.org/1999/02/22-rdf-syntax-ns#"
   xmlns:svg="http://www.w3.org/2000/svg"
   xmlns="http://www.w3.org/2000/svg"
   xmlns:sodipodi="http://sodipodi.sourceforge.net/DTD/sodipodi-0.dtd"
   xmlns:inkscape="http://www.inkscape.org/namespaces/inkscape"
   width="184pt"
   height="185pt"
   viewBox="0 0 184.00023 185.00011"
   version="1.2"
   id="svg2"
   inkscape:version="0.91 r13725"
   sodipodi:docname="vscary.svg">
  <title
     id="title3346">Very Scary Scenario logo</title>
  <metadata
     id="metadata318">
    <rdf:RDF>
      <cc:Work
         rdf:about="">
        <dc:format>image/svg+xml</dc:format>
        <dc:type
           rdf:resource="http://purl.org/dc/dcmitype/StillImage" />
        <dc:title>Very Scary Scenario logo</dc:title>
      </cc:Work>
    </rdf:RDF>
  </metadata>
  <sodipodi:namedview
     pagecolor="#ffffff"
     bordercolor="#666666"
     borderopacity="1"
     objecttolerance="10"
     gridtolerance="10"
     guidetolerance="10"
     inkscape:pageopacity="0"
     inkscape:pageshadow="2"
     inkscape:window-width="2874"
     inkscape:window-height="1762"
     id="namedview316"
     showgrid="false"
     inkscape:zoom="1.0072697"
     inkscape:cx="98.404248"
     inkscape:cy="26.310352"
     inkscape:window-x="0"
     inkscape:window-y="32"
     inkscape:window-maximized="0"
     inkscape:current-layer="g10"
     units="pt"
     fit-margin-top="0"
     fit-margin-left="0"
     fit-margin-right="0"
     fit-margin-bottom="0" />
  <desc
     id="desc6">Generated with Qt</desc>
  <defs
     id="defs8" />
  <g
     id="g10"
     transform="translate(-420.00052,-70.999942)"
     style="fill:none;fill-rule:evenodd;stroke:#000000;stroke-width:1;stroke-linecap:square;stroke-linejoin:bevel">
    <path
       style="font-style:normal;font-weight:400;font-size:medium;font-family:Helvetica;fill:#76852F;fill-opacity:1;fill-rule:evenodd;stroke:none"
       d="m 540,25.212891 c -8.27999,0 -15,6.72001 -15,15 l 0,77.499999 c 0,8.27999 6.72001,15 15,15 l 77.5,0 c 8.27999,0 15,-6.72001 15,-15 l 0,-77.499999 c 0,-8.27999 -6.72001,-15 -15,-15 l -77.5,0 z m 13.68359,26.050781 12.56055,0 10,39.839844 c 0.53333,2.13333 0.98604,4.186825 1.35938,6.160156 l 2,0 c 0.16,-1.013332 0.61466,-3.066827 1.36132,-6.160156 l 9.91993,-39.839844 12.55859,0 -14.95898,51.839848 c -0.26667,1.01333 -0.79962,1.84047 -1.59961,2.48046 -0.74667,0.58667 -1.65404,0.87891 -2.72071,0.87891 l -11.11914,0 c -1.06666,0 -2.00078,-0.29224 -2.80078,-0.87891 -0.74667,-0.63999 -1.25286,-1.46713 -1.51953,-2.48046 L 553.68359,51.263672 Z"
       transform="matrix(0.80000099,0,0,0.80000099,0,50.82947)"
       id="path50"
       inkscape:connector-curvature="0" />
    <path
       style="font-style:normal;font-weight:700;font-size:medium;font-family:'Exo 2';fill:#76852F;fill-opacity:1;fill-rule:evenodd;stroke:none"
       d="m 662.5,25.212891 c -8.27999,0 -15,6.72001 -15,15 l 0,77.499999 c 0,8.27999 6.72001,15 15,15 l 77.5,0 c 8.27999,0 15,-6.72001 15,-15 l 0,-77.499999 c 0,-8.27999 -6.72001,-15 -15,-15 l -77.5,0 z m 39.14453,25.009765 c 7.03999,0 13.0935,0.720158 18.16016,2.160156 l -0.80078,8.320313 c -4.64,-0.16 -10.39931,-0.240234 -17.2793,-0.240234 -3.2,0 -5.33373,0.294193 -6.40039,0.880859 -1.06667,0.533333 -1.59961,1.920159 -1.59961,4.160156 0,1.813331 0.39922,3.119923 1.19922,3.919922 0.8,0.799999 2.32055,1.571694 4.56055,2.31836 l 10.48046,3.601562 c 4.26667,1.493331 7.27907,3.546826 9.03907,6.160156 1.75999,2.559997 2.64062,5.920084 2.64062,10.080078 0,6.186659 -1.4938,10.398676 -4.48047,12.638676 -2.98666,2.18666 -8.32001,3.28125 -16,3.28125 -6.23999,0 -12.55899,-0.69342 -18.95898,-2.08008 l 0.71875,-8.800783 c 11.35998,0.266666 17.44023,0.40039 18.24023,0.400391 3.25333,0 5.41381,-0.347684 6.48047,-1.041016 1.12,-0.693333 1.67969,-2.133649 1.67969,-4.320313 0,-1.866664 -0.37248,-3.173256 -1.11914,-3.919921 -0.74667,-0.8 -2.10675,-1.518204 -4.08008,-2.158204 l -11.12109,-3.921875 c -4.10667,-1.493331 -7.03883,-3.518128 -8.79883,-6.078125 -1.76,-2.559996 -2.64063,-5.920083 -2.64063,-10.080078 0,-6.079992 1.46706,-10.133492 4.40039,-12.160156 2.98667,-2.079997 8.21303,-3.121094 15.67969,-3.121094 z"
       transform="matrix(0.80000099,0,0,0.80000099,0,50.82947)"
       id="path58"
       inkscape:connector-curvature="0" />
    <path
       style="font-style:normal;font-weight:700;font-size:medium;font-family:'Exo 2';fill:#76852F;fill-opacity:1;fill-rule:evenodd;stroke:none"
       d="m 540,148.96289 c -8.27999,0 -15,6.72001 -15,15 l 0,77.5 c 0,8.27999 6.72001,15 15,15 l 77.5,0 c 8.27999,0 15,-6.72001 15,-15 l 0,-77.5 c 0,-8.27999 -6.72001,-15 -15,-15 l -77.5,0 z m 39.14453,25.00977 c 7.03999,0 13.0935,0.72015 18.16016,2.16015 l -0.80078,8.32031 c -4.64,-0.15999 -10.39931,-0.24023 -17.2793,-0.24023 -3.2,0 -5.33373,0.29419 -6.40039,0.88086 -1.06667,0.53333 -1.59961,1.91821 -1.59961,4.1582 0,1.81333 0.39922,3.12188 1.19922,3.92188 0.8,0.8 2.32055,1.57169 4.56055,2.31836 l 10.48046,3.60156 c 4.26667,1.49333 7.27907,3.54487 9.03907,6.1582 1.75999,2.56 2.64062,5.92009 2.64062,10.08008 0,6.18666 -1.4938,10.40063 -4.48047,12.64063 -2.98666,2.18666 -8.32001,3.27929 -16,3.27929 -6.23999,0 -12.55899,-0.69146 -18.95898,-2.07812 l 0.71875,-8.80078 c 11.35998,0.26666 17.44023,0.40039 18.24023,0.40039 3.25333,0 5.41381,-0.34769 6.48047,-1.04102 1.12,-0.69333 1.67969,-2.13365 1.67969,-4.32031 0,-1.86666 -0.37248,-3.17326 -1.11914,-3.91992 -0.74667,-0.8 -2.10675,-1.52016 -4.08008,-2.16016 l -11.12109,-3.91992 c -4.10667,-1.49333 -7.03883,-3.52008 -8.79883,-6.08008 -1.76,-2.56 -2.64063,-5.92008 -2.64063,-10.08008 0,-6.07999 1.46706,-10.13154 4.40039,-12.1582 2.98667,-2.08 8.21303,-3.12109 15.67969,-3.12109 z"
       transform="matrix(0.80000099,0,0,0.80000099,0,50.82947)"
       id="path66"
       inkscape:connector-curvature="0" />
    <g
       font-size="21"
       font-weight="400"
       font-style="normal"
       id="g170"
       style="font-style:normal;font-weight:400;font-size:21px;font-family:'Exo 2';fill:#000000;fill-opacity:1;stroke:#000000;stroke-width:1;stroke-linecap:square;stroke-linejoin:bevel;stroke-opacity:1">
      <text
         xml:space="preserve"
         x="253.5"
         y="2954"
         font-size="21"
         font-weight="400"
         font-style="normal"
         id="text172"
         style="font-style:normal;font-weight:400;font-size:21px;font-family:'Exo 2';fill:#000000;fill-opacity:1;stroke:none" />
    </g>
    <g
       font-size="21"
       font-weight="400"
       font-style="normal"
       id="g178"
       style="font-style:normal;font-weight:400;font-size:21px;font-family:'Exo 2';fill:#000000;fill-opacity:1;stroke:#000000;stroke-width:1;stroke-linecap:square;stroke-linejoin:bevel;stroke-opacity:1">
      <text
         xml:space="preserve"
         x="493.5"
         y="2954"
         font-size="21"
         font-weight="400"
         font-style="normal"
         id="text180"
         style="font-style:normal;font-weight:400;font-size:21px;font-family:'Exo 2';fill:#000000;fill-opacity:1;stroke:none" />
    </g>
    <g
       font-size="21"
       font-weight="400"
       font-style="normal"
       id="g186"
       style="font-style:normal;font-weight:400;font-size:21px;font-family:'Exo 2';fill:#000000;fill-opacity:1;stroke:#000000;stroke-width:1;stroke-linecap:square;stroke-linejoin:bevel;stroke-opacity:1">
      <text
         xml:space="preserve"
         x="719.5"
         y="2954"
         font-size="21"
         font-weight="400"
         font-style="normal"
         id="text188"
         style="font-style:normal;font-weight:400;font-size:21px;font-family:'Exo 2';fill:#000000;fill-opacity:1;stroke:none" />
    </g>
  </g>
</svg>
