<svg xmlns="http://www.w3.org/2000/svg" width="246.667" height="185pt" viewBox="0 0 185.00021 185.00011" version="1.2"><title>Very Scary Scenario logo</title><desc>Generated with Qt</desc><g fill="none" fill-rule="evenodd" stroke="#000" stroke-linecap="square" stroke-linejoin="bevel"><path d="M12 0C5.376 0 0 5.376 0 12v62c0 6.624 5.376 12 12 12h62c6.624 0 12-5.376 12-12V12c0-6.624-5.376-12-12-12H12zm10.947 20.84h10.048l8 31.873c.427 1.706.79 3.349 1.088 4.928h1.6c.128-.811.492-2.454 1.089-4.928l7.936-31.872h10.047L50.788 62.313a3.668 3.668 0 0 1-1.28 1.984c-.597.47-1.323.703-2.177.703h-8.895c-.853 0-1.6-.234-2.24-.703-.598-.512-1.003-1.174-1.216-1.984L22.947 20.84z" font-weight="400" font-family="Helvetica" fill="#76852f" stroke="none"/><path d="M12 99c-6.624 0-12 5.376-12 12v62c0 6.624 5.376 12 12 12h62c6.624 0 12-5.376 12-12v-62c0-6.624-5.376-12-12-12H12zm31.316 20.008c5.632 0 10.474.576 14.528 1.728l-.64 6.656c-3.713-.128-8.32-.192-13.824-.192-2.56 0-4.267.235-5.12.705-.854.426-1.28 1.534-1.28 3.326 0 1.451.32 2.498.96 3.138.64.64 1.856 1.257 3.648 1.855l8.384 2.88c3.413 1.195 5.823 2.837 7.231 4.927 1.408 2.048 2.113 4.736 2.113 8.064 0 4.95-1.195 8.321-3.585 10.113-2.389 1.75-6.656 2.623-12.8 2.623-4.992 0-10.047-.553-15.167-1.662l.575-7.04c9.088.213 13.952.32 14.592.32 2.603 0 4.331-.279 5.185-.833.896-.555 1.343-1.707 1.343-3.456 0-1.494-.298-2.54-.895-3.136-.597-.64-1.685-1.217-3.264-1.729l-8.897-3.136c-3.285-1.194-5.63-2.816-7.039-4.864-1.408-2.048-2.112-4.736-2.112-8.064 0-4.864 1.173-8.105 3.52-9.726 2.39-1.664 6.57-2.497 12.544-2.497zM111 0c-6.624 0-12 5.376-12 12v62c0 6.624 5.376 12 12 12h62c6.624 0 12-5.376 12-12V12c0-6.624-5.376-12-12-12h-62zm31.316 20.008c5.632 0 10.475.576 14.528 1.728l-.64 6.656c-3.713-.128-8.32-.192-13.824-.192-2.56 0-4.267.235-5.12.705-.854.426-1.28 1.534-1.28 3.326 0 1.451.32 2.498.96 3.138.64.64 1.856 1.257 3.648 1.855l8.384 2.88c3.413 1.195 5.823 2.837 7.231 4.927 1.408 2.048 2.113 4.736 2.113 8.064 0 4.95-1.195 8.32-3.585 10.113-2.389 1.75-6.656 2.623-12.8 2.623-4.992 0-10.047-.553-15.167-1.662l.575-7.04c9.088.213 13.952.32 14.592.32 2.603 0 4.331-.279 5.185-.833.896-.555 1.344-1.707 1.344-3.457 0-1.493-.298-2.538-.896-3.135-.597-.64-1.685-1.217-3.264-1.729l-8.897-3.136c-3.285-1.194-5.63-2.816-7.039-4.864-1.408-2.048-2.112-4.736-2.112-8.064 0-4.864 1.173-8.105 3.52-9.726 2.39-1.664 6.57-2.497 12.544-2.497z" font-weight="700" font-family="Exo 2" fill="#76852f" stroke="none"/></g></svg>